<?xml version="1.0" standalone="no"?> 
<!DOCTYPE svg PUBLIC "-//W3C//DTD SVG 1.1//EN" "http://www.w3.org/Graphics/SVG/1.1/DTD/svg11.dtd" >
<svg xmlns="http://www.w3.org/2000/svg">
<defs>
  <font id="style-guide-font" horiz-adv-x="2048">
    <font-face font-family="style-guide-font"
      units-per-em="2048" ascent="2048"
      descent="0" />
    <missing-glyph horiz-adv-x="0" />
    <glyph glyph-name="burger"
      unicode="&#xF000;"
      horiz-adv-x="2048" d=" M384 256L1664 256C1734.912 256 1792 198.91200000000003 1792 128C1792 57.087999999999965 1734.912 0 1664 0L384 0C313.08799999999997 0 256 57.087999999999965 256 128C256 198.91200000000003 313.088 256 384 256z M383.89999 768L1663.9 768C1734.8120000000001 768 1791.9 710.912 1791.9 640C1791.9 569.088 1734.8120000000001 512 1663.9 512L383.8999900000001 512C312.9879900000001 512 255.89999000000012 569.088 255.89999000000012 640C255.89999000000012 710.912 312.98799000000014 768 383.8999900000001 768z M384 1280L1664 1280C1734.912 1280 1792 1222.912 1792 1152C1792 1081.088 1734.912 1024 1664 1024L384 1024C313.08799999999997 1024 256 1081.088 256 1152C256 1222.912 313.088 1280 384 1280z" />
    <glyph glyph-name="home"
      unicode="&#xF001;"
      horiz-adv-x="2048" d=" M1024.6843840000001 1664.321072L0 640.792314L255.88216400000002 640.792314L255.88216400000002 -126.85428000000002L767.646526 -126.85428000000002L767.646526 512.851334L1279.410854 512.851334L1279.410854 -126.85428000000002L1791.175216 -126.85428000000002L1791.175216 640.7923139999998L2047.0573800000002 640.7923139999998z" />
    <glyph glyph-name="arrow-left"
      unicode="&#xF002;"
      horiz-adv-x="2048" d=" M493 802.3870820000002L1456.547692 1806L1732.5824380000004 1530.747526L1002.514582 804.504398L1751 77.7041119999999L1482.515328 -200L493 802.3870820000002L493 802.3870820000002z" />
    <glyph glyph-name="arrow-right"
      unicode="&#xF003;"
      horiz-adv-x="2048" d=" M1751.62147 804.038548L788.33653 -199.63009599999987L512.3770939999999 75.63767800000005L1242.245812 801.921096L493.96452999999997 1528.761774L762.376 1806.481322L1751.62147 804.038548L1751.62147 804.038548z" />
    <glyph glyph-name="arrow-top"
      unicode="&#xF004;"
      horiz-adv-x="2048" d=" M982.8629820000001 1396.391638L1982.9474480000003 461.04725200000007L1708.6626820000001 193.09213L984.9728520000001 901.7906800000001L260.727802 175.21363799999995L-16 435.83968600000003L982.8629820000001 1396.391638L982.8629820000001 1396.391638z" />
    <glyph glyph-name="arrow-bottom"
      unicode="&#xF005;"
      horiz-adv-x="2048" d=" M1009.5261149999999 149.15455500000007L-6.150539999999978 1087.170445L272.41053999999997 1355.89089L1007.383345 645.168185L1742.9199999999996 1373.8204449999998L2023.96223 1112.45L1009.5261149999999 149.15455500000007L1009.5261149999999 149.15455500000007z" />
    <glyph glyph-name="github"
      unicode="&#xF006;"
      horiz-adv-x="2048" d=" M1023.9999 1792.00002C458.49999 1792.00002 0 1321.90968 0 742.1117999999999C0 278.1745999999998 293.37598 -115.27739999999994 700.31197 -254.07300000000032C751.49997 -263.6876000000002 770.18797 -231.26170000000047 770.18797 -203.57870000000048C770.18797 -178.5877000000005 769.25 -95.79610000000048 768.75002 -8.135600000000522C484.00005999999996 -71.57450000000063 423.81206 115.66689999999949 423.81206 115.66689999999949C377.18805999999995 236.90629999999942 310.12406 269.2034999999994 310.12406 269.2034999999994C217.06205999999997 334.30739999999946 317.18406999999996 333.02579999999944 317.18406999999996 333.02579999999944C419.99604999999997 325.72229999999945 474.12404999999995 224.8597999999995 474.12404999999995 224.8597999999995C565.5000399999999 64.40309999999954 713.8740499999999 110.79789999999957 772.12403 137.71139999999946C781.43205 205.37849999999935 807.9320299999999 251.77329999999938 837.1240399999999 277.9172999999994C609.8120499999999 304.44469999999933 370.6880499999999 394.54239999999936 370.6880499999999 796.8394999999994C370.6880499999999 911.5420999999994 410.62605999999994 1005.0959999999993 476.00004999999993 1078.5971899999995C465.5620599999999 1105.2558999999994 430.31206999999995 1212.0760099999993 486.1240399999999 1356.5744899999995C486.1240399999999 1356.5744899999995 572.0000399999999 1384.7695599999993 767.74803 1248.9205699999993C849.37204 1272.3109499999996 936.93602 1283.8452999999995 1023.998 1284.2287499999993C1110.998 1283.8427199999994 1198.622 1272.1822699999993 1280.374 1248.7944599999994C1475.75 1384.7695599999993 1561.75 1356.4483899999993 1561.75 1356.4483899999993C1617.75 1211.8212399999993 1582.5 1105.1272299999994 1572 1078.5971899999993C1637.624 1005.0959999999993 1677.25 911.5395999999992 1677.25 796.8394999999991C1677.25 393.5180999999991 1437.75 304.7046999999991 1209.626 278.6866999999993C1246.502 246.13479999999936 1279.126 182.3097999999993 1279.126 84.39649999999938C1279.126 -55.94060000000081 1277.7501 -169.10440000000062 1277.7501 -203.7074000000007C1277.7501 -231.6477000000009 1296.374 -264.3258000000005 1348.2501 -254.07300000000077C1754.876 -115.02010000000018 2048 278.4294 2048 742.1117999999999C2048 1321.90968 1589.5 1792.00002 1024.0001 1792.00002L1024.0001 1792.00002z" />
    <glyph glyph-name="cross"
      unicode="&#xF007;"
      horiz-adv-x="2048" d=" M320 1792L0 1472L704 768L0 64L320 -256L1024 448L1728.0001 -256L2048 64L1344 768L2048 1472L1728 1792L1024 1088z" />
    <glyph glyph-name="switch"
      unicode="&#xF008;"
      horiz-adv-x="2048" d=" M-1534.5691249999998 -30.114700000000084L-1302.6573499999997 -30.114700000000084L273 2009L35.83970499999998 2009L-1534.5691249999998 -30.114700000000084z" />
    <glyph glyph-name="facebook"
      unicode="&#xF009;"
      horiz-adv-x="2048" d=" M1093.827 -256.0001000000002L1093.827 537.0337999999997L826.9885400000001 537.0337999999997L826.9885400000001 846.0753999999997L1093.827 846.0753999999997L1093.827 1073.9718799999996C1093.827 1338.4927799999996 1255.5185 1482.5748999999996 1491.4951 1482.5748999999996C1604.5233 1482.5748999999996 1701.6203 1474.2485899999997 1729.9424000000001 1470.4885799999997L1729.9424000000001 1194.0595999999996L1566.3103 1193.8678099999997C1437.9816 1193.8678099999997 1413.0357000000001 1132.9572699999999 1413.0357000000001 1043.4713999999997L1413.0357000000001 846.0761999999997L1719.1998 846.0761999999997L1679.2988 537.0345999999997L1413.0357 537.0345999999997L1413.0357 -255.99940000000015L2048.0000999999997 -256.0001000000002L2048.0000999999997 1791.9999899999998L-0.14724072 1791.29289L-0.00005 -256.0001000000002C-0.00005 -256.0001000000002 655.16207 -256.0001000000002 1093.827 -256.0001000000002z" />
    <glyph glyph-name="twitter"
      unicode="&#xF010;"
      horiz-adv-x="2048" d=" M1706.6667 1149.33333C1656.8889 1127.11111 1603.1111 1112 1545.3333 1104C1605.7778 1139.55555 1647.1111 1191.55555 1669.3333 1260C1611.5556 1226.22222 1552 1203.55555 1490.6667 1192C1436.4444 1250.66667 1368.4444 1280 1286.6667 1280C1209.3334 1280 1143.3334 1252.66667 1088.6667 1198C1034 1143.33333 1006.6667 1077.33333 1006.6667 1000C1006.6667 974.2221999999999 1008.8889 952.8888999999999 1013.3333 936C898.66665 942.2221999999999 791.11111 971.1111000000001 690.6666700000001 1022.6667C590.2222200000001 1074.2222299999999 504.88889000000006 1143.11111 434.66667000000007 1229.33333C408.88889 1184.88889 396 1137.77778 396 1088C396 986.6667 436.44444 908.8888999999999 517.33333 854.6667C475.55556 855.5555999999999 431.11111 867.1111000000001 384 889.3333L384 886.6667C384 820 406.22222 760.6667 450.66667 708.6667C495.11111 656.6667 549.77778 624.4445000000001 614.6666700000001 612C588.8888900000001 604.8888999999999 566.2222200000001 601.3333 546.6666700000001 601.3333C535.11111 601.3333 517.7777800000001 603.1111000000001 494.66667000000007 606.6667C513.33334 550.6667 546.4444500000001 504.44450000000006 594.0000000000001 468C641.5555500000002 431.55549999999994 695.5555500000002 412.8888999999999 756.0000000000001 412C652.8888900000002 332 536.8888900000002 292 408.0000000000001 292C384.8888900000001 292 362.6666600000001 293.3333 341.3333300000001 296C472.8888900000001 212.44450000000006 616.0000000000001 170.6667 770.6666700000001 170.6667C870.2222200000001 170.6667 963.5555700000001 186.44450000000006 1050.6667 218C1137.7778 249.55549999999994 1212.4444 291.77780000000007 1274.6667 344.6667C1336.8889 397.5555999999999 1390.4444 458.4444000000001 1435.3333 527.3333C1480.2222 596.2221999999999 1513.5556 668.2221999999999 1535.3333 743.3333C1557.1111 818.4444000000001 1568 893.3333 1568 968C1568 984 1567.5556 996 1566.6667 1004C1622.6667 1044 1669.3334 1092.44444 1706.6667 1149.33333zM2048 -256L0 -256L0 1792L2048 1792z" />
    <glyph glyph-name="download"
      unicode="&#xF011;"
      horiz-adv-x="2048" d=" M311.488 1091L1023.172 228.9079999999999L1734.6039999999998 1091L1270.456 1091L1270.456 1793L775.78 1793L775.78 1091z M169 58.412035999999944H1877.200036V-254.2479784000002H169z" />
    <glyph glyph-name="source"
      unicode="&#xF012;"
      horiz-adv-x="2048" d=" M368.196 1670.028C313.59200000000004 1596.444 285.91200000000003 1497.812 285.91200000000003 1376.892V1236.152C285.91200000000003 1167.756 274.06800000000004 1132.18 264.08400000000006 1114.268C238.65600000000006 1068.468 186.24800000000005 1041.46 103.88000000000005 1031.696L50.79600000000005 1025.408V818.5240000000001L104.51200000000006 812.7240000000002C185.68000000000006 803.9560000000001 237.76000000000005 776.2960000000003 263.72800000000007 728.1480000000001C278.4440000000001 700.8680000000002 285.9120000000001 660.4440000000002 285.9120000000001 608.0400000000002V429.98400000000015C285.9120000000001 296.34000000000015 327.9600000000001 197.34800000000018 410.9080000000001 135.76000000000022C486.5760000000001 79.58400000000029 582.2560000000001 45.312000000000126 695.2840000000001 33.88400000000024L761.4920000000001 27.18800000000033V248.3480000000004L708.392 254.62400000000048C666.344 259.6000000000006 628.336 276.75600000000054 592.24 307.0800000000004C561.74 332.7040000000004 546.284 381.0840000000003 546.284 450.8720000000003V581.4720000000002C546.284 673.2400000000002 534.112 745.1880000000001 508.988 801.6440000000002C491.108 841.3520000000003 461.404 886.0280000000002 412.204 921.2560000000003C453.904 950.0720000000003 486.176 988.9880000000003 508.744 1037.7920000000004C534 1092.4280000000003 546.284 1165.6800000000003 546.284 1261.7320000000004V1358.4840000000004C546.284 1421.1200000000003 553.548 1469.3040000000003 567.86 1501.5640000000003C582.816 1535.1480000000004 613.468 1580.7040000000004 706.54 1588.7960000000003L761.492 1593.5560000000005V1812.7560000000003L696.252 1807.2160000000003C533.784 1793.4840000000004 426.47599999999994 1748.5960000000005 368.19599999999997 1670.0280000000002z M1658.308 1031.772C1576.36 1040.54 1523.952 1067.72 1498.064 1114.856C1483.6960000000001 1141.012 1476.104 1182.94 1476.104 1236.1V1376.816C1476.104 1493.74 1455.772 1580.72 1414.232 1642.304C1350.752 1738.136 1233.744 1793.636 1066.4279999999999 1807.252L1001.3799999999999 1812.54V1593.548L1056.3719999999998 1588.804C1150.6039999999998 1580.6640000000002 1180.7959999999998 1537.7600000000002 1195.2359999999999 1506.3560000000002C1204.984 1485.0080000000003 1216.6039999999998 1442.044 1216.6039999999998 1358.692V1262.0040000000001C1216.6039999999998 1165.372 1228.8759999999997 1091.8160000000003 1254.1879999999999 1037.0720000000001C1271.9519999999998 998.8280000000002 1301.6 955.692 1350.9519999999998 921.5720000000001C1309.0439999999999 891.672 1276.3399999999997 851.3960000000002 1253.8879999999997 801.4520000000002C1228.7959999999996 745.7240000000002 1216.6039999999996 673.7000000000003 1216.6039999999996 581.2480000000003V450.73600000000033C1216.6039999999996 387.4840000000004 1201.8279999999995 340.5160000000003 1172.7039999999995 311.1800000000003C1141.1439999999996 279.4200000000003 1102.2199999999996 260.8880000000004 1053.7199999999996 254.5400000000002L1001.3759999999995 247.6800000000003V26.77200000000039L1067.9599999999996 33.916000000000395C1179.9919999999995 45.944000000000415 1275.0399999999995 79.6080000000004 1350.4239999999995 133.9680000000003C1433.8199999999995 194.10000000000036 1476.0999999999995 293.69600000000037 1476.0999999999995 429.9840000000004V608.04C1476.0999999999995 659.4679999999998 1483.6279999999995 699.7080000000001 1498.3039999999994 727.336C1524.7599999999993 776.4760000000001 1577.0079999999994 804.4000000000001 1658.0199999999995 812.684L1712.0679999999995 818.212V1026.02L1658.3079999999995 1031.772z" />
    <glyph glyph-name="linked-in"
      unicode="&#xF013;"
      horiz-adv-x="2048" d=" M10.680000000000007 1787.4507119999998H1986.6800600000001V-188.549348H10.680000000000064z M793.7325 430.32061999999996L793.7325 922.95066L628.18002 922.95066L628.18002 428.95064L793.7325000000001 428.95064zM711.9925000000001 988.03064C769.0125 988.03064 804.4925000000001 1025.83064 804.4925000000001 1073.03064C803.4325000000001 1121.29064 769.0125 1158.03064 713.0725000000001 1158.03064C657.1325 1158.03064 620.5725000000001 1121.29064 620.5725000000001 1073.03064C620.5725000000001 1025.83064 656.0525000000001 988.03064 710.9325000000001 988.03064z M875.1800400000001 428.95064L1041.92344 428.95064L1041.92344 705.04062C1041.92344 719.74062 1043.00344 734.4606200000001 1047.3034400000001 744.9406200000001C1059.14344 774.3206200000002 1086.0634400000001 804.74062 1131.2034400000002 804.74062C1190.3834400000003 804.74062 1214.0434400000001 759.6206200000001 1214.0434400000001 693.50062L1214.0434400000001 428.95064L1369.1800600000001 428.95064L1369.1800600000001 712.3806199999999C1369.1800600000001 863.5006199999998 1296.90344 933.80062 1189.3034400000001 933.80062C1101.10344 933.80062 1062.38344 884.50062 1040.86344 850.9206199999999L1041.94344 850.9206199999999L1041.94344 922.95066L875.18004 922.95066C877.30004 876.7906599999999 875.18004 428.95064 875.18004 428.95064z" />
    <glyph glyph-name="google-plus"
      unicode="&#xF014;"
      horiz-adv-x="2048" d=" M64 1992C64 1987.582 60.418 1984 56 1984H8C3.582 1984 0 1987.582 0 1992V2040C0 2044.418 3.582 2048 8 2048H56C60.418 2048 64 2044.418 64 2040V1992z M0.5 1791.5L0.5 1192.59375C79.647476 1383.23867 300.10037 1528.34375 544.5 1528.34375L1180.0938 1528.34375L1018.8125 1359.09375L899.75 1359.09375C988.03983 1289.00178 1039.5625 1170.2015999999999 1039.5625 1031.9375C1039.5625 907.7532000000001 976.09413 792.4798000000001 856 698.625C755.41152 620.0740000000001 740.21875 590.3928000000001 740.21875 529.0938000000001C740.21875 482.5698 847.43626 402.8119999999999 898.96875 364.4688000000001L912.21875 354.5938000000001C1118.6549 199.7458999999999 1152 100.47039999999993 1152 -77.25C1152.0073 -137.5972999999999 1135.0852 -198.4924000000001 1102.6875 -255.5L2047.5 -255.5L2047.5 1791.5L0.5 1791.5zM446.6875 1402.8125L446.6875 1402.53125C386.61262 1402.53125 333.40281 1378.04789 292.75 1331.71875C234.01074 1264.7431299999998 208.9465 1160.64718 224 1046.0625C250.01669 848.3634999999999 392.61009 695.5848000000001 555.75 690.6875L563.59375 690.6875C624.69817 690.6875 676.31253 712.7239 712.875 754.4061999999999C764.29623 813.0342 784.41779 907.7367999999999 769.53125 1021.125C741.56683 1233.9887800000001 605.5971 1397.94015 453.28125 1402.53125L446.6875 1402.8125zM0.5 856.0625L0.5 169.4375C107.34391 261.9492 259.93122 325.0625 442.5625 325.0625C461.84546 325.0625 480.30566 325.3399999999999 498.53125 325.5625C505.18151 325.5625 511.78039 325.8438000000001 518.375 325.8438000000001C482.48033 362.8236999999999 451.34375 404.69139999999993 451.34375 469.4688000000001C451.34375 502.2469000000001 459.10917 536.5129 474.46875 571.6561999999999C461.50214 571.0164 449.99487 570.7188000000001 438.78125 570.7188000000001C225.20485 570.7188000000001 64.940292 680.0117 0.5 856.0625zM515.84375 226C284.17008 226 88.46875 79.61550000000011 88.46875 -93.625C88.46875 -152.9931999999999 107.41196 -208.15110000000004 140.84375 -255.5L899.4375 -255.5C924.29209 -212.81219999999985 936.90625 -161.88540000000012 936.90625 -103.0311999999999C936.90625 -82.60759999999982 934.43194 -61.80609999999979 929.5625 -41.1875C908.16481 42.53890000000001 831.99609 94.05860000000007 726.59375 165.375C709.25859 177.1171999999999 691.25378 189.26970000000006 672.75 202.125C624.8904 217.40110000000004 574.12754 225.4402 521.84375 225.9688000000001L515.84375 226z M1419.5 1073.5L1149.5 1073.5L1149.5 1235.5L1419.5 1235.5L1419.5 1505.5L1581.5 1505.5L1581.5 1235.5L1851.5 1235.5L1851.5 1073.5L1581.5 1073.5L1581.5 803.5L1419.5 803.5z" />
    <glyph glyph-name="youtube"
      unicode="&#xF015;"
      horiz-adv-x="2048" d=" M-0.000015997497 1791.87201H2047.7439840025029V-255.8719900000001H-0.000015997497030184604z M1030.335 1201.24218C885.16686 1201.24218 670.6721 1192.44893 606.46752 1190.30202C536.73269 1184.06659 510.91900000000004 1180.41348 472.72612000000004 1147.7287099999999C414.53215000000006 1095.97419 400.72468000000003 994.2779 400.72468000000003 838.6904999999999L400.72468000000003 690.6167C400.72468000000003 513.0267000000001 424.31044 422.80500000000006 463.14301 389.8048000000001C507.9675 351.35170000000016 537.52191 348.2783000000002 567.37107 343.66970000000015C578.95932 341.9162000000001 660.97293 327.38670000000025 1024.9072 327.38670000000025C1251.8566 327.38670000000025 1446.9288000000001 338.10630000000015 1467.0932 340.70140000000015C1499.5102 344.7921000000001 1546.0766 350.72990000000004 1581.2438 389.8048000000001C1633.3039999999999 448.97360000000003 1643.6621 547.2035000000001 1643.6621 689.5142000000001L1643.6621 862.0125C1643.6621 954.1288 1638.531 1084.3179 1581.2438 1138.82391C1537.8472 1175.55976 1521.9537 1185.9543 1432.1524 1190.47162C1406.7558 1191.72577 1185.1406 1201.2421800000002 1030.335 1201.2421800000002zM896 938L1231.1588 764.9929L896 590.6288999999999L896 938z" />
    <glyph glyph-name="xing"
      unicode="&#xF016;"
      horiz-adv-x="2048" d=" M50.279 2012.208L50.276 2012.236V2012.263C50.276 2014.894 48.104000000000006 2017.034 45.435 2017.034H45.418L45.403 2017.034C41.138 2017.212 36.623 2017.298 31.985999999999997 2017.289C27.340999999999998 2017.297 22.823999999999998 2017.211 18.559999999999995 2017.034L18.544999999999995 2017.034H18.53C17.795 2017.034 17.098000000000003 2016.87 16.474 2016.581L49.917 1996.018C50.146 1996.575 50.275 1997.182 50.275 1997.819V1997.846L50.278 1997.873C50.452999999999996 2000.181 50.54 2002.592 50.532 2005.042C50.541 2007.491 50.45399999999999 2009.902 50.278999999999996 2012.208zM45.403999999999996 1993.041L45.419 1993.042H45.436C46.209 1993.042 46.941 1993.223 47.591 1993.542L37.231 1992.816C40.031 1992.855 42.768 1992.931 45.404 1993.041z M4.8347951e-7 1792.00001L4.8347951e-7 -256L2048 -256L2048 1792.00001L4.8347951e-7 1792.00001zM1341.2812 1408.00001L1640.8125 1408.00001L1195.8125 640L1482.5625 128L1183 128L896.28125 640L1341.2812 1408.00001zM485.6249999999999 1152.00001L767.9687499999999 1152.00001L934.8125 896L712.34375 512L429.96875 512L652.4375 896L485.625 1152.00001z" />
    <glyph glyph-name="feedback"
      unicode="&#xF017;"
      horiz-adv-x="2048" d=" M0 1638.094L0 370.2813000000001L487.625 370.2813000000001L487.625 -103L1049.2812 370.2813000000001L2048 370.2813000000001L2048 1638.094L0 1638.094z" />
    <glyph glyph-name="checkmark"
      unicode="&#xF018;"
      horiz-adv-x="2048" d=" M1938.7046 1495.0848799999999L1939.0403000000001 1495.7682300000001L1939.0403000000001 1495.7682300000001C1954.0789000000002 1524.33225 1963.3438 1556.79137 1963.3438 1591.71055C1963.3438 1702.27656 1877.7444 1792.0004 1772.0711000000001 1792.0004C1710.9097000000002 1792.0004 1657.2002000000002 1761.4546599999999 1622.2220000000002 1714.78186L1622.0877000000003 1714.85026L1621.4835000000003 1713.82523C1611.7486000000004 1700.77324 1603.2223000000004 1686.83291 1596.8442000000002 1671.52586L801.2737 306.80780000000004L434.97554 775.2440999999999L434.97554 775.1750999999999C400.66864000000004 828.9546 342.25971000000004 864.3521999999998 275.92861000000005 864.3521999999998C170.32260000000005 864.3521999999998 84.65610500000005 774.6282999999999 84.65610500000005 664.0622999999998C84.65610500000005 607.9592999999998 106.87830000000005 557.3230999999998 142.39367000000004 520.9688999999998L628.73224 -164.36270000000013H628.86648C662.90476 -219.3724000000002 721.8509300000001 -256 789.1219600000001 -256C868.8805000000001 -256 937.1584 -204.6804000000002 965.7586900000001 -132.10869999999977L1925.613 1473.2856299999999C1930.5140000000001 1480.32414 1934.6764 1487.63598 1938.7046 1495.2894999999999z" />
    <glyph glyph-name="info"
      unicode="&#xF019;"
      horiz-adv-x="2048" d=" M-1.8560000000001082 784.975944C-1.8560000000001082 227.43786162881588 450.1179176288159 -224.53605599999992 1007.656 -224.53605599999992C1565.194082371184 -224.53605599999992 2017.1680000000001 227.43786162881588 2017.1680000000001 784.975944C2017.1680000000001 1342.5140263711842 1565.194082371184 1794.487944 1007.656 1794.487944C450.1179176288159 1794.487944 -1.8560000000001082 1342.5140263711842 -1.8560000000001082 784.975944z M994.80294 289.4857999999999H791.67297L904.82591 967.097H1107.9559L994.80294 289.4857999999999zM1116.1924 1115.58178H913.06244L945.7813600000001 1307.80544H1148.9113L1116.1924 1115.58178z" />
    <glyph glyph-name="dropdown"
      unicode="&#xF020;"
      horiz-adv-x="2048" d=" M2028.0880709 1215.2507552L1889.2200709 1355.0507552C1869.4150709 1375.0887552 1837.0280709 1375.5547551999998 1817.6890709000002 1355.9827552L1030.6150825500001 575.4327552L225.6000709000001 1356.4487552C206.2610709000001 1376.0207552 174.80607090000012 1375.5547551999998 154.7680709000001 1355.5167551999998L17.76407090000012 1217.3477552C-2.273929099999876 1197.3097552 -2.739929099999877 1165.3887551999999 16.59907090000012 1145.5837551999998L887.32008255 300.7257552000001C887.55308255 300.49275520000015 887.7860825500001 300.7257552000001 888.01908255 300.49275520000015L996.36408255 191.2157552000001C1016.16908255 170.7117552000002 1048.09008255 170.24575520000008 1067.66208255 189.8177552000002L2029.0200708999998 1143.0207552000002C2048.5920708999997 1162.5927552000003 2048.1260709 1194.9797552000002 2028.0880708999998 1215.2507552000002z" />
    <glyph glyph-name="calendar"
      unicode="&#xF021;"
      horiz-adv-x="2048" d=" M641.10384 765.6049H421.02706V545.8194000000001H641.10384V765.6049zM1633.8096 760.0819000000001H1413.8956V540.3775H1633.8096V760.0819000000001zM1300.8458 760.0819000000001H1081.2574V540.3775H1300.8458V760.0819000000001zM635.40659 374.1169000000002H415.57398V154.73750000000018H635.40659V374.1169zM1702.5022 1481.8167600000002V1477.6744600000002C1740.4297 1444.21118 1764.5209 1395.3970100000001 1764.5209 1340.89733C1764.5209 1239.93892 1682.4805 1158.14879 1581.3135 1158.14879C1480.228 1158.14879 1398.1875 1240.02014 1398.1875 1340.89733C1398.1875 1395.3970100000001 1422.1974 1444.21118 1460.2062 1477.67446V1481.81676H604.31586V1477.67446C642.24329 1444.21118 666.25315 1395.39701 666.25315 1340.89733C666.25315 1239.93892 584.2126900000001 1158.14879 483.12712999999997 1158.14879C381.96018 1158.14879 300.0011099999999 1240.02014 300.0011099999999 1340.89733C300.0011099999999 1395.3970100000001 324.01096999999993 1444.21118 362.01978999999994 1477.67446V1481.81676H0V-256H2048V1481.8167600000002H1702.5022zM1990.7833 -198.9011999999998H56.972539V1085.21183H1990.7833V-198.9011999999998zM968.45177 374.1169H748.45638V154.73749999999995H968.4517699999999V374.1169zM1300.8457999999998 374.1169H1081.2573999999997V154.73749999999995H1300.8457999999998V374.1169zM968.45177 760.0818999999999H748.45638V540.3774999999998H968.45177V760.0818999999999zM483.12713 1234.33464C533.5071300000001 1234.33464 574.28319 1275.10787 574.28319 1325.38402V1653.03184C574.28319 1703.30799 533.50713 1744 483.12713 1744C432.74713 1744 391.97107000000005 1703.30799 391.97107000000005 1653.03184V1325.30279C391.97107000000005 1275.1078699999998 432.82852 1234.33464 483.1271300000001 1234.33464zM1581.2321000000002 1234.33464C1631.6121000000003 1234.33464 1672.4696000000001 1275.1078699999998 1672.4696000000001 1325.38402V1653.03184C1672.4696000000001 1703.30799 1631.6121 1744 1581.2321000000002 1744C1530.9335 1744 1490.1575000000003 1703.30799 1490.1575000000003 1653.03184V1325.30279C1490.1575000000003 1275.1078699999998 1530.9335000000003 1234.33464 1581.2321000000002 1234.33464z" />
    <glyph glyph-name="close"
      unicode="&#xF022;"
      horiz-adv-x="2048" d=" M1024 1792C458.46253 1792 0 1333.53747 0 768C0 202.4625000000001 458.46253 -256 1024 -256C1589.5375 -256 2048 202.4625000000001 2048 768C2048 1333.53747 1589.5375 1792 1024 1792zM1459.9115 437.91380000000004L1392.1446999999998 370.14699999999993L1030.5323999999998 731.7023999999999L668.6361599999998 370.14699999999993L600.8693599999998 437.91380000000004L962.6519999999998 799.4692L600.8693599999998 1161.02469L668.6929599999999 1228.7914799999999L1030.5892 867.2359999999999L1392.1446999999998 1228.7914799999999L1459.9115 1161.0246899999997L1098.356 799.4691999999998L1459.9115 437.9137999999998z" />
    <glyph glyph-name="modal-close"
      unicode="&#xF023;"
      horiz-adv-x="2048" d=" M0 -94.46210000000019L862.33123 767.8536999999999L0 1630.2671L161.71759 1792.00009L1024.0488 929.6842999999999L1886.2825 1792.00009L2047.9026 1630.36465L1185.6689 768.0488L2048.0001 -94.26699999999983L1886.2825 -256L1023.9513 606.4132999999999L161.62005 -256L0 -94.46210000000019z" />
    <glyph glyph-name="process-checkmark"
      unicode="&#xF024;"
      horiz-adv-x="2048" d=" M267.125 891.75L-1 706.125L817.125 -91.375C817.125 -91.375 1738.375 1263 2034 1524.25L1924 1641.125C1545.875 1448.625 771.365 471.4950000000001 771.365 471.4950000000001" />
    <glyph glyph-name="desktop"
      unicode="&#xF025;"
      horiz-adv-x="2048" d=" M1278.45 112.65000000000009C1274.15 131.41000000000008 1271.26 149.93000000000006 1269.15 167.44000000000005L778.854 167.44000000000005C774.399 132.33999999999992 766.662 92.6400000000001 752.906 55.82999999999993C739.15 18.8599999999999 719.766 -14.519999999999982 693.192 -38.19999999999982C666.618 -61.73000000000002 633.635 -76.5 587.521 -76.65000000000009L587.521 -120.65999999999985L1460.24 -120.65999999999985L1460.24 -76.65000000000009C1414.13 -76.5 1381.15 -61.73000000000002 1354.57 -38.19999999999982C1314.95 -2.869999999999891 1291.11 55.430000000000064 1278.45 112.65000000000009zM1989.69 1656.6L58.3066 1656.6C26.1051 1656.6 -2.27374e-13 1630.495 -2.27374e-13 1598.2930000000001L-2.27374e-13 329.1500000000001C-2.27374e-13 296.95000000000005 26.1051 270.8399999999999 58.3066 270.8399999999999L1989.69 270.8399999999999C2021.89 270.8399999999999 2048 296.95000000000005 2048 329.1500000000001L2048 1598.2930000000001C2048 1630.495 2021.89 1656.6 1989.69 1656.6zM1906.45 412.30999999999995L141.311 412.30999999999995L141.311 1515.054L1906.45 1515.054L1906.45 412.30999999999995z" />
    <glyph glyph-name="mobile"
      unicode="&#xF026;"
      horiz-adv-x="2048" d=" M1454.69 1792L593.129 1792C510.684 1792 443.943 1725.0810000000001 443.943 1642.814L443.943 -106.80999999999995C443.943 -189.26000000000022 510.684 -256 593.129 -256L1454.69 -256C1537.32 -256 1604.06 -189.26000000000022 1604.06 -106.80999999999995L1604.06 1642.814C1604.06 1725.0810000000001 1537.32 1792 1454.69 1792zM926.476 1664.942L1121.52 1664.942L1121.52 1600.075L926.476 1600.075L926.476 1664.942zM1024.09 -177.84000000000015C971.624 -177.84000000000015 928.975 -135.2800000000002 928.975 -82.7199999999998C928.975 -30.26000000000022 971.714 12.210000000000036 1024.09 12.210000000000036C1076.46 12.210000000000036 1119.03 -30.34999999999991 1119.03 -82.7199999999998C1119.03 -135.2800000000002 1076.55 -177.84000000000015 1024.09 -177.84000000000015zM1492.35 72.25999999999999L555.832 72.25999999999999L555.832 1463.471L1492.35 1463.471L1492.35 72.25999999999999z" />
    <glyph glyph-name="upload"
      unicode="&#xF027;"
      horiz-adv-x="2048" d=" M307.751 940.0060000000001L768.026 940.0060000000001L768.026 243.95800000000008L1258.6970000000001 243.95800000000008L1258.6970000000001 940.0060000000001L1718.972 940.0060000000001L1013.387 1794.97z M166.4299898 74.7910509999997H1860.2930407999997V-235.2379490000003H166.42998979999993z" />
  </font>
</defs>
</svg>
