<?xml version="1.0" encoding="UTF-8"?><!DOCTYPE svg PUBLIC "-//W3C//DTD SVG 1.1//EN" "http://www.w3.org/Graphics/SVG/1.1/DTD/svg11.dtd"><svg xmlns="http://www.w3.org/2000/svg"><defs><linearGradient id="b" gradientUnits="userSpaceOnUse" x1="41.233" y1="27.781" x2="28.367" y2="50.066"><stop offset=".006" stop-color="#FFF"/><stop offset=".013" stop-color="#F6F6F6"/><stop offset=".053" stop-color="#C8C8C8"/><stop offset=".098" stop-color="#9D9D9D"/><stop offset=".146" stop-color="#777"/><stop offset=".199" stop-color="#575757"/><stop offset=".257" stop-color="#3B3B3B"/><stop offset=".322" stop-color="#252525"/><stop offset=".399" stop-color="#141414"/><stop offset=".493" stop-color="#090909"/><stop offset=".626" stop-color="#020202"/><stop offset=".994"/></linearGradient><filter color-interpolation-filters="sRGB" id="a" filterUnits="userSpaceOnUse" x="13.431" y="30.62" width="36.25" height="24.595"><feColorMatrix values="1 0 0 0 0 0 1 0 0 0 0 0 1 0 0 0 0 0 1 0"/></filter></defs><symbol id="arrow-bottom" viewBox="0 0 2048 2048"><title>Arrow-Bottom</title><path d="M1024.012 1664.01L-.002 639.996 255.984 384.01l767.992 767.993 768.028-767.992 255.986 255.987L1024.012 1664.01z"/></symbol><symbol id="arrow-left" viewBox="0 0 1280 2048"><title>Arrow-Left</title><path d="M1024 0L0 1024l1024 1024 256-256-768-768 768-768L1024 0z"/></symbol><symbol id="arrow-right" viewBox="0 0 1280 2048"><title>Arrow-Left</title><path d="M256 2048l1024-1024L256 0 0 256l768 768L0 1792l256 256z"/></symbol><symbol id="arrow-top" viewBox="0 0 2048 2048"><title>Arrow-Top</title><path d="M1023.99 383.984l1023.99 1023.99-255.997 255.997-767.993-767.955-767.992 767.992L0 1408.01 1023.99 383.983z"/></symbol><symbol id="burger" viewBox="0 0 2048 1706"><title>Burger</title><path d="M170.667 1364.8h1706.666c94.55 0 170.667 76.088 170.667 170.6s-76.117 170.6-170.667 170.6H170.667C76.117 1706 0 1629.912 0 1535.4s76.117-170.6 170.667-170.6zm0-682.4h1706.666c94.55 0 170.667 76.088 170.667 170.6s-76.117 170.6-170.667 170.6H170.667C76.117 1023.6 0 947.512 0 853s76.117-170.6 170.667-170.6zm0-682.4h1706.666C1971.883 0 2048 76.088 2048 170.6s-76.117 170.6-170.667 170.6H170.667C76.117 341.2 0 265.112 0 170.6S76.117 0 170.667 0z" fill-rule="evenodd"/></symbol><symbol id="calendar" viewBox="0 0 2048 2048"><title>Calendar</title><path d="M483.125 48c-50.38 0-91.156 40.693-91.156 90.97v327.717c0 50.195 40.855 90.97 91.154 90.97 50.38 0 91.156-40.756 91.156-91.032V138.97c0-50.277-40.775-90.97-91.155-90.97zm1098.094 0c-50.3 0-91.065 40.693-91.065 90.97v327.717c0 50.195 40.764 90.97 91.063 90.97 50.38 0 91.25-40.756 91.25-91.032V138.97c-.002-50.277-40.87-90.97-91.25-90.97zM0 310.188V2048h2048V310.187h-345.5v4.125c37.928 33.464 62.03 82.282 62.03 136.782 0 100.958-82.05 182.75-183.217 182.75-101.086 0-183.126-81.873-183.126-182.75 0-54.5 24.023-103.318 62.032-136.78v-4.127H604.31v4.125c37.928 33.464 61.938 82.282 61.938 136.782 0 100.958-82.04 182.75-183.125 182.75C381.958 633.844 300 551.97 300 451.094c0-54.5 24.022-103.318 62.03-136.78v-4.127H0zM56.97 706.78h1933.81v1284.126H56.97V706.78zM320 1024v256h256v-256H320zm384 0v256h256v-256H704zm384 0v256h256v-256h-256zm384 0v256h256v-256h-256zM320 1408v256h256v-256H320zm384 0v256h256v-256H704zm384 0v256h256v-256h-256z"/></symbol><symbol id="checkmark" viewBox="0 0 1878 2048"><title>Checkmark</title><path d="M1853.37 296.916l.335-.683C1868.738 267.67 1878 235.21 1878 200.29 1878 89.725 1792.432 0 1686.797 0c-61.14 0-114.83 30.546-149.794 77.22l-.135-.07-.604 1.026c-9.73 13.052-18.255 26.992-24.63 42.3L716.354 1485.19 350.19 1016.753v.07c-34.293-53.78-92.68-89.178-158.987-89.178C85.635 927.647 0 1017.372 0 1127.937c0 56.104 22.214 106.74 57.716 143.094l486.16 685.334h.135c34.027 55.01 92.95 91.637 160.198 91.637 79.73 0 147.982-51.32 176.572-123.89l959.5-1605.397c4.9-7.04 9.06-14.35 13.087-22.004v.205z"/></symbol><symbol id="clipboard" viewBox="0 0 1646 2048"><title>Clipboard</title><path d="M823.016 0C679.534 0 563.243 116.143 563.243 259.656c0 5.145.32 10.303.47 15.47h-318.88v269.062H1401.2V275.125h-319.037c.32-5.166.437-10.324.437-15.47C1082.6 116.165 966.39 0 823.017 0zm0 142.72c64.44.084 116.868 52.34 116.868 116.936 0 64.512-52.43 116.664-116.868 116.813-64.59-.15-116.708-52.303-116.837-116.815.127-64.595 52.246-116.852 116.835-116.937zM0 440.655V2048h1646V440.656h-128.558v226.75H128.746v-226.75H0zm482.57 540l458.502 378.313L482.57 1737.31v-246.843H.03v-263h482.54V980.655z"/></symbol><symbol id="close" viewBox="0 0 2048 2048"><title>Close</title><path d="M1024 0C458.462 0 0 458.462 0 1024c0 565.537 458.462 1024 1024 1024 565.537 0 1024-458.463 1024-1024C2048 458.462 1589.537 0 1024 0zM668.687 563.22l361.907 361.53 361.562-361.53 67.75 67.75-361.562 361.56 361.562 361.564-67.75 67.75-361.625-361.532-361.904 361.532-67.75-67.75 361.78-361.563-361.78-361.56 67.813-67.75z"/></symbol><symbol id="cross" viewBox="0 0 2048 2048"><title>Cross</title><path d="M320 0L0 320l704 704L0 1728l320 320 704-704 704 704 320-320-704-704 704-704L1728 0l-704 704L320 0z" fill-rule="evenodd"/></symbol><symbol id="desktop" viewBox="0 0 2048 2048"><title>Desktop</title><path d="M1280 1664H768c-10.288 90.124-76.032 191.168-128 192v64h768v-64c-83.143-51.523-117.65-107.164-128-192zm709.69-1535.853H58.307C26.105 128.147 0 154.252 0 186.454V1477.69c0 32.2 26.105 58.31 58.307 58.31H1989.69c32.2 0 58.31-26.11 58.31-58.31V186.454c0-32.202-26.11-58.307-58.31-58.307zM1920 1408H128V256h1792z" fill-rule="nonzero"/></symbol><symbol id="download" viewBox="0 0 1792 2048"><title>Download</title><path d="M896.072 1564.666l767.91-796.648h-512V-.002H640.018v767.984h-512l768.054 796.684zM-.01 1792.018h1791.983V2048H-.01v-255.982z"/></symbol><symbol id="dropdown" viewBox="0 0 2048 2048"><title>Dropdown</title><path clip-rule="evenodd" d="M2032.623 550.606L1893.28 400.44c-19.874-21.458-52.372-21.957-71.777-1l-797.522 836.29-800.023-836.32c-19.405-20.958-50.968-20.46-71.075.998L15.41 548.36C-4.7 569.82-5.166 604 14.238 625.207l973.374 1021.946c19.873 21.955 51.904 22.454 71.543 1.497l974.403-1020.7c19.64-20.957 19.172-55.637-.935-77.344z" fill-rule="evenodd"/></symbol><symbol id="facebook" viewBox="0 0 2048 2048.0001"><title>Facebook</title><path d="M1093.827 2048v-793.034H826.99v-309.04h266.837v-227.9c0-264.52 161.69-408.602 397.668-408.602 113.028 0 210.125 8.326 238.447 12.086v276.43l-163.632.192c-128.328 0-153.274 60.91-153.274 150.397v197.393H1719.2l-39.9 309.04h-266.264V2048H2048V0L-.147.707 0 2048h1093.827z" fill="#3d539e"/></symbol><symbol id="feedback" viewBox="0 0 2048 2048"><title>Feedback</title><path d="M0 128v1280h512v512l512-512h1024V128H0z"/></symbol><symbol id="github" viewBox="0 0 2048 2048"><title>GitHub</title><path d="M1024 0C458.5 0 0 470.09 0 1049.888c0 463.938 293.376 857.39 700.312 996.185 51.188 9.615 69.876-22.81 69.876-50.494 0-24.993-.938-107.785-1.438-195.445-284.75 63.44-344.938-123.803-344.938-123.803-46.624-121.24-113.688-153.536-113.688-153.536-93.062-65.104 7.06-63.823 7.06-63.823 102.812 7.304 156.94 108.166 156.94 108.166 91.376 160.456 239.75 114.06 298 87.15 9.308-67.67 35.808-114.064 65-140.208-227.312-26.528-466.436-116.625-466.436-518.922 0-114.702 39.938-208.256 105.312-281.757-10.438-26.66-45.688-133.48 10.124-277.977 0 0 85.876-28.195 281.624 107.653 81.624-23.39 169.188-34.926 256.25-35.31 87 .386 174.624 12.047 256.376 35.435C1475.75 407.23 1561.75 435.552 1561.75 435.552c56 144.627 20.75 251.32 10.25 277.85 65.624 73.502 105.25 167.058 105.25 281.76 0 403.32-239.5 492.133-467.624 518.15 36.876 32.553 69.5 96.378 69.5 194.292 0 140.337-1.376 253.5-1.376 288.103 0 27.94 18.624 60.62 70.5 50.366C1754.876 1907.02 2048 1513.57 2048 1049.888 2048 470.09 1589.5 0 1024 0z"/></symbol><symbol id="google-plus" viewBox="0 0 2048 2048"><title>Google Plus</title><path d="M.5.515V599.42c79.147-190.644 299.6-335.75 544-335.75h635.594l-161.28 169.25H899.75c88.29 70.093 139.813 188.894 139.813 327.158 0 124.184-63.47 239.457-183.563 333.312-100.588 78.55-115.78 108.232-115.78 169.53 0 46.525 107.216 126.283 158.75 164.626l13.25 9.875c206.435 154.85 239.78 254.126 239.78 431.846.01 60.347-16.915 121.243-49.313 178.25H2047.5V.516H.5zm446.188 388.688v.28c-60.075 0-113.285 24.484-153.938 70.813-58.74 66.976-83.803 171.072-68.75 285.657 26.017 197.7 168.61 350.477 331.75 355.375h7.844c61.104 0 112.72-22.037 149.28-63.72 51.422-58.627 71.544-153.33 56.657-266.718C741.57 558.026 605.6 394.075 453.28 389.484l-6.59-.28zM.5 935.953v686.625c106.844-92.512 259.43-155.625 442.063-155.625 19.282 0 37.743-.278 55.968-.5 6.653 0 13.25-.282 19.846-.282-35.895-36.98-67.03-78.845-67.03-143.623 0-32.778 7.764-67.044 23.124-102.187-12.968.64-24.475.936-35.69.936-213.575 0-373.84-109.293-438.28-285.343zm515.344 630.062c-231.674 0-427.375 146.385-427.375 319.625 0 59.368 18.94 114.526 52.373 161.875h758.593c24.855-42.688 37.47-93.614 37.47-152.47 0-20.422-2.475-41.224-7.345-61.842-21.396-83.727-97.565-135.246-202.967-206.563-17.335-11.742-35.34-23.895-53.844-36.75-47.86-15.276-98.623-23.315-150.907-23.844l-6-.03z" fill="#bb3627" stroke="#000" stroke-width=".97"/><path fill="#fff" d="M1182.163 736.718V569.766h278.253V291.512h166.952v278.254h278.253v166.952h-278.25v278.253h-166.952V736.72"/></symbol><symbol id="home" viewBox="0 0 2048 2048"><title>Home</title><path d="M1025.156 128L0 1152h256v768h512v-640h512v640h512v-768h256z"/></symbol><symbol id="info" viewBox="0 0 2048 2048"><title>Info</title><path d="M1024 .002a1024 1024 0 0 0-1024 1024 1024 1024 0 0 0 1024 1024 1024 1024 0 0 0 1024-1024 1024 1024 0 0 0-1024-1024zm-78.22 484.193h203.13l-32.717 192.223h-203.13l32.718-192.223zm-40.954 340.71h203.13l-113.153 677.61h-203.13l113.153-677.61z"/></symbol><symbol id="linked-in" viewBox="0 0 2048 2048"><title>LinkedIn</title><path clip-rule="evenodd" fill="#007bb6" fill-rule="evenodd" d="M0-.01h2048v2048H0z"/><path clip-rule="evenodd" d="M811.585 1406.58V896H640v512h171.585zm-84.72-579.45c59.1 0 95.872-39.178 95.872-88.098-1.1-50.02-36.773-88.097-94.75-88.097-57.98 0-95.872 38.078-95.872 88.097 0 48.92 36.773 88.097 93.653 88.097zM896 1408h172.82v-286.15c0-15.235 1.118-30.492 5.575-41.354 12.272-30.45 40.172-61.98 86.957-61.98 61.337 0 85.86 46.765 85.86 115.295V1408H1408v-293.757c0-156.627-74.91-229.488-186.43-229.488-91.415 0-131.545 51.096-153.85 85.9h1.12V896H896c2.197 47.842 0 512 0 512z" fill="#fff" fill-rule="evenodd"/></symbol><symbol id="mobile" viewBox="0 0 1153.25 2048"><title>Mobile</title><path d="M1004.765 0H148.302C66.345 0 0 66.92 0 149.186V1898.81C0 1981.26 66.344 2048 148.3 2048h856.463c82.14 0 148.486-66.74 148.486-149.19V149.186C1153.25 66.92 1086.906 0 1004.765 0zM479.677 128h193.89v63.925h-193.89zm97.036 1841.84c-52.156 0-94.552-42.56-94.552-95.12 0-52.46 42.488-94.93 94.554-94.93 52.06 0 94.378 42.56 94.378 94.93 0 52.56-42.227 95.12-94.377 95.12zm465.49-250.1H111.225V328.53H1042.2z" fill-rule="nonzero"/></symbol><symbol id="modal-close" viewBox="0 0 2048.0001 2047.9999"><title>Modal-Close</title><path d="M161.72 0L0 161.72l862.344 862.436L0 1886.47 161.625 2048l862.313-862.406L1886.28 2048 2048 1886.28l-862.344-862.343 862.25-862.312L1886.28 0l-862.217 862.312L161.718 0z" fill-rule="evenodd"/></symbol><symbol id="process-checkmark" viewBox="0 0 2048 1743"><title>Process Checkmark</title><path d="M269.838 753.917L0 940.667 823.35 1743S1750.487 380.417 2048 117.583L1937.297 0C1556.757 193.667 777.3 1176.72 777.3 1176.72"/></symbol><symbol id="search" viewBox="0 0 35 35"><title>Search</title><path d="M26.727 24.855l-.12-.12-4.823-4.827c.67-1.155 1.06-2.494 1.07-3.925.027-4.38-3.5-7.955-7.877-7.983h-.052C10.572 8 7.028 11.52 7 15.882c-.028 4.38 3.498 7.955 7.876 7.983h.05c1.456 0 2.82-.394 3.993-1.08l4.816 4.822.12.12c.365.364.956.364 1.32 0l1.55-1.55c.364-.366.364-.957 0-1.322zm-11.84-3.013c-3.254-.02-5.886-2.69-5.866-5.947.023-3.238 2.67-5.872 5.906-5.872h.04c1.577.01 3.056.634 4.164 1.757 1.107 1.123 1.71 2.612 1.7 4.19-.01 1.572-.628 3.048-1.742 4.155-1.114 1.107-2.59 1.717-4.16 1.717h-.04z"/></symbol><symbol id="source" viewBox="0 0 1904.99 2048"><title>Source</title><path d="M363.964 163.667c-62.615 84.38-94.356 197.48-94.356 336.14v161.39c0 78.43-13.58 119.224-25.03 139.764-29.16 52.52-89.255 83.49-183.707 94.688L0 902.858v237.235l61.596 6.65c93.075 10.055 152.796 41.773 182.574 96.984 16.875 31.283 25.438 77.637 25.438 137.73v204.177c0 153.25 48.217 266.765 143.334 337.39 86.77 64.416 196.486 103.716 326.096 116.82l75.92 7.68v-253.607l-60.89-7.196c-48.216-5.704-91.8-25.377-133.19-60.15-34.976-29.383-52.7-84.86-52.7-164.887v-149.76c0-105.23-13.957-187.735-42.767-252.473-20.5-45.534-54.563-96.765-110.98-137.16 47.817-33.044 84.823-77.67 110.702-133.634 28.962-62.65 43.05-146.65 43.05-256.793V520.917c0-71.825 8.328-127.078 24.74-164.07 17.15-38.512 52.3-90.75 159.025-100.03l63.014-5.46V0l-74.81 6.353C553.844 22.1 430.793 73.573 363.963 163.667zm1479.38 731.893c-93.97-10.055-154.067-41.222-183.753-95.273-16.474-29.994-25.18-78.073-25.18-139.032v-161.36c0-134.077-23.314-233.818-70.95-304.437C1490.67 85.568 1356.496 21.925 1164.63 6.31L1090.04.25v251.12l63.06 5.44c108.056 9.333 142.678 58.532 159.236 94.543 11.178 24.48 24.503 73.748 24.503 169.328v110.87c0 110.81 14.07 195.157 43.096 257.932 20.37 43.855 54.367 93.32 110.96 132.445-48.056 34.286-85.558 80.47-111.304 137.742-28.773 63.902-42.754 146.492-42.754 252.51v149.657c0 72.53-16.945 126.39-50.34 160.03-36.19 36.42-80.826 57.67-136.44 64.95l-60.024 7.865V2048l76.352-8.192c128.468-13.793 237.46-52.395 323.903-114.73 95.63-68.954 144.114-183.162 144.114-339.444v-204.178c0-58.973 8.632-105.116 25.46-136.798 30.34-56.35 90.252-88.37 183.15-97.87l61.976-6.338V902.156l-61.646-6.596z"/></symbol><symbol id="switch" viewBox="0 0 1815.4399 2048"><title>AXA Switch</title><title>switch</title><path d="M-.003 2048H232.92L1815.443 0H1577.25L-.004 2048z"/></symbol><symbol id="tablet" viewBox="0 0 1664 2048"><title>Mobile</title><path d="M1492.3 0h-1344C66.34 0-.006 66.92-.006 149.186V1898.81C-.006 1981.26 66.34 2048 148.3 2048h1367.998c82.142 0 148.487-66.74 148.487-149.19V149.186C1664.785 66.92 1574.44 0 1492.3 0zM832.086 1983.025c-52.156 0-94.552-42.56-94.552-95.12 0-52.46 42.486-94.93 94.552-94.93 52.06 0 94.378 42.56 94.378 94.93 0 52.56-42.228 95.12-94.378 95.12zM1536 1728H128V320h1408z" fill-rule="nonzero"/></symbol><symbol id="twitter" viewBox="0 0 2048 2048"><title>Twitter</title><path d="M1706.667 642.667C1656.89 664.89 1603.11 680 1545.333 688c60.445-35.556 101.778-87.556 124-156-57.777 33.778-117.333 56.444-178.666 68-54.223-58.667-122.223-88-204-88-77.334 0-143.334 27.333-198 82-54.667 54.667-82 120.667-82 198 0 25.778 2.222 47.11 6.666 64-114.666-6.222-222.222-35.11-322.666-86.667-100.445-51.555-185.778-120.444-256-206.666C408.89 607.11 396 654.222 396 704c0 101.333 40.444 179.11 121.333 233.333-41.777-.89-86.222-12.444-133.333-34.666v2.666c0 66.667 22.222 126 66.667 178 44.444 52 99.11 84.222 164 96.667-25.778 7.11-48.445 10.667-68 10.667-11.556 0-28.89-1.778-52-5.334 18.666 56 51.777 102.222 99.333 138.667 47.556 36.444 101.556 55.11 162 56-103.11 80-219.11 120-348 120-23.11 0-45.333-1.333-66.667-4C472.89 1579.555 616 1621.333 770.667 1621.333c99.555 0 192.89-15.778 280-47.333 87.11-31.555 161.777-73.778 224-126.667 62.222-52.89 115.777-113.777 160.666-182.666 44.89-68.89 78.223-140.89 100-216C1557.11 973.557 1568 898.667 1568 824c0-16-.444-28-1.333-36 56-40 102.666-88.444 140-145.333zM2048 2048H0V0h2048z"/></symbol><symbol id="upload" viewBox="0 0 1792 2048"><title>Upload</title><path d="M640 896v640h512V896h512L896.026 0 128 896zM0 1792h1792v256H0z"/></symbol><symbol id="xing" viewBox="0 0 2048 2048"><title>Xing</title><path d="M0 0v2048h2048V0H0zm1341.28 384h299.532l-445 768 286.75 512H1183l-286.72-512 445-768zM485.626 640H767.97l166.84 256-222.468 384H429.97l222.467-384-166.812-256z" fill="#00605e"/></symbol><symbol id="youtube" viewBox="0 0 2048 2048"><title>Youtube</title><path fill="#ca272c" stroke="#000" stroke-width=".256" stroke-linecap="round" d="M0 .128h2047.744v2047.744H0z"/><path d="M1030.335 590.758c-145.168 0-359.663 8.793-423.867 10.94-69.735 6.235-95.55 9.89-133.742 42.573-58.194 51.757-72 153.453-72 309.04v148.074c0 177.59 23.584 267.812 62.417 300.812 44.825 38.453 74.38 41.527 104.228 46.135 11.59 1.755 93.604 16.284 457.538 16.284 226.95 0 422.022-10.72 442.186-13.314 32.417-4.092 78.984-10.03 114.15-49.105 52.06-59.17 62.42-157.4 62.42-299.71V929.99c0-92.117-5.132-222.306-62.42-276.812-43.396-36.736-59.29-47.13-149.09-51.648-25.397-1.254-247.012-10.77-401.818-10.77zM896 854l335.16 173.007L896 1201.37V854z" fill="#fff"/></symbol></svg>